HIERARCHY
ROOT hip
{
  OFFSET 0 0 0
  CHANNELS 6 Xposition Yposition Zposition Zrotation Yrotation Xrotation
  JOINT abdomen
  {
    OFFSET 0 20.6881 -0.73152
    CHANNELS 3 Zrotation Xrotation Yrotation
    JOINT chest
    {
      OFFSET 0 11.7043 -0.48768
      CHANNELS 3 Zrotation Xrotation Yrotation
      JOINT neck
      {
        OFFSET 0 22.1894 -2.19456
        CHANNELS 3 Zrotation Xrotation Yrotation
        JOINT head
        {
          OFFSET -0.24384 7.07133 1.2192
          CHANNELS 3 Zrotation Xrotation Yrotation
          JOINT leftEye
          {
            OFFSET 4.14528 8.04674 8.04672
            CHANNELS 3 Zrotation Xrotation Yrotation
            End Site
            {
              OFFSET 1 0 0
            }
          }
          JOINT rightEye
          {
            OFFSET -3.6576 8.04674 8.04672
            CHANNELS 3 Zrotation Xrotation Yrotation
            End Site
            {
              OFFSET 1 0 0
            }
          }
        }
      }
      JOINT rCollar
      {
        OFFSET -2.68224 19.2634 -4.8768
        CHANNELS 3 Zrotation Xrotation Yrotation
        JOINT rShldr
        {
          OFFSET -8.77824 -1.95073 1.46304
          CHANNELS 3 Zrotation Xrotation Yrotation
          JOINT rForeArm
          {
            OFFSET -28.1742 -1.7115 0.48768
            CHANNELS 3 Zrotation Xrotation Yrotation
            JOINT rHand
            {
              OFFSET -22.5879 0.773209 7.07136
              CHANNELS 3 Zrotation Xrotation Yrotation
              JOINT rThumb1
              {
                OFFSET -1.2192 -0.487915 3.41376
                CHANNELS 3 Zrotation Xrotation Yrotation
                JOINT rThumb2
                {
                  OFFSET -3.37035 -0.52449 3.41376
                  CHANNELS 3 Zrotation Xrotation Yrotation
                  End Site
                  {
                    OFFSET -1.78271 -1.18214 1.43049
                  }
                }
              }
              JOINT rIndex1
              {
                OFFSET -7.75947 0.938293 5.60832
                CHANNELS 3 Zrotation Xrotation Yrotation
                JOINT rIndex2
                {
                  OFFSET -2.54057 -0.884171 1.56538
                  CHANNELS 3 Zrotation Xrotation Yrotation
                  End Site
                  {
                    OFFSET -1.62519 -0.234802 1.16502
                  }
                }
              }
              JOINT rMid1
              {
                OFFSET -8.24714 1.18213 3.41376
                CHANNELS 3 Zrotation Xrotation Yrotation
                JOINT rMid2
                {
                  OFFSET -3.10165 -0.590103 1.0647
                  CHANNELS 3 Zrotation Xrotation Yrotation
                  End Site
                  {
                    OFFSET -2.48547 -0.328903 0.83742
                  }
                }
              }
              JOINT rRing1
              {
                OFFSET -8.82822 0.546677 1.51678
                CHANNELS 3 Zrotation Xrotation Yrotation
                JOINT rRing2
                {
                  OFFSET -2.60934 -0.819778 -0.0198488
                  CHANNELS 3 Zrotation Xrotation Yrotation
                  End Site
                  {
                    OFFSET -2.33842 -0.294052 0.168128
                  }
                }
              }
              JOINT rPinky1
              {
                OFFSET -8.27202 -0.0477905 -0.4584
                CHANNELS 3 Zrotation Xrotation Yrotation
                JOINT rPinky2
                {
                  OFFSET -1.82734 -0.647385 -0.700984
                  CHANNELS 3 Zrotation Xrotation Yrotation
                  End Site
                  {
                    OFFSET -1.69225 -0.51767 -0.607171
                  }
                }
              }
            }
          }
        }
      }
      JOINT lCollar
      {
        OFFSET 2.68224 19.2634 -4.8768
        CHANNELS 3 Zrotation Xrotation Yrotation
        JOINT lShldr
        {
          OFFSET 8.77824 -1.95073 1.46304
          CHANNELS 3 Zrotation Xrotation Yrotation
          JOINT lForeArm
          {
            OFFSET 28.1742 -1.7115 0.48768
            CHANNELS 3 Zrotation Xrotation Yrotation
            JOINT lHand
            {
              OFFSET 22.5879 0.773209 7.07136
              CHANNELS 3 Zrotation Xrotation Yrotation
              JOINT lThumb1
              {
                OFFSET 1.2192 -0.487915 3.41376
                CHANNELS 3 Zrotation Xrotation Yrotation
                JOINT lThumb2
                {
                  OFFSET 3.37035 -0.52449 3.41376
                  CHANNELS 3 Zrotation Xrotation Yrotation
                  End Site
                  {
                    OFFSET 1.78271 -1.18214 1.43049
                  }
                }
              }
              JOINT lIndex1
              {
                OFFSET 7.75947 0.938293 5.60832
                CHANNELS 3 Zrotation Xrotation Yrotation
                JOINT lIndex2
                {
                  OFFSET 2.54057 -0.884171 1.56538
                  CHANNELS 3 Zrotation Xrotation Yrotation
                  End Site
                  {
                    OFFSET 1.62519 -0.234802 1.16502
                  }
                }
              }
              JOINT lMid1
              {
                OFFSET 8.24714 1.18213 3.41376
                CHANNELS 3 Zrotation Xrotation Yrotation
                JOINT lMid2
                {
                  OFFSET 3.10165 -0.590103 1.0647
                  CHANNELS 3 Zrotation Xrotation Yrotation
                  End Site
                  {
                    OFFSET 2.48547 -0.328903 0.83742
                  }
                }
              }
              JOINT lRing1
              {
                OFFSET 8.82822 0.546677 1.51678
                CHANNELS 3 Zrotation Xrotation Yrotation
                JOINT lRing2
                {
                  OFFSET 2.60934 -0.819778 -0.0198488
                  CHANNELS 3 Zrotation Xrotation Yrotation
                  End Site
                  {
                    OFFSET 2.33842 -0.294052 0.168128
                  }
                }
              }
              JOINT lPinky1
              {
                OFFSET 8.27202 -0.0477905 -0.4584
                CHANNELS 3 Zrotation Xrotation Yrotation
                JOINT lPinky2
                {
                  OFFSET 1.82734 -0.647385 -0.700984
                  CHANNELS 3 Zrotation Xrotation Yrotation
                  End Site
                  {
                    OFFSET 1.69225 -0.51767 -0.607171
                  }
                }
              }
            }
          }
        }
      }
    }
  }
  JOINT rButtock
  {
    OFFSET -8.77824 4.35084 1.2192
    CHANNELS 3 Zrotation Xrotation Yrotation
    JOINT rThigh
    {
      OFFSET 0 -1.70687 -2.19456
      CHANNELS 3 Zrotation Xrotation Yrotation
      JOINT rShin
      {
        OFFSET 0 -36.8199 0.73152
        CHANNELS 3 Zrotation Xrotation Yrotation
        JOINT rFoot
        {
          OFFSET 0.73152 -45.1104 -5.12064
          CHANNELS 3 Zrotation Xrotation Yrotation
          End Site
          {
            OFFSET -1.1221 -3.69964 12.103
          }
        }
      }
    }
  }
  JOINT lButtock
  {
    OFFSET 8.77824 4.35084 1.2192
    CHANNELS 3 Zrotation Xrotation Yrotation
    JOINT lThigh
    {
      OFFSET 0 -1.70687 -2.19456
      CHANNELS 3 Zrotation Xrotation Yrotation
      JOINT lShin
      {
        OFFSET 0 -36.8199 0.73152
        CHANNELS 3 Zrotation Xrotation Yrotation
        JOINT lFoot
        {
          OFFSET -0.73152 -45.1104 -5.12064
          CHANNELS 3 Zrotation Xrotation Yrotation
          End Site
          {
            OFFSET 1.1221 -3.69964 12.103
          }
        }
      }
    }
  }
}
MOTION
Frames:	4
Frame Time:	0.00833333
283.89 83.4871 108.442 0.0 0.0 0.0 -2.59964 0.000365978 -0.0702747 -0.716703 0.01229 -0.12403 9.76726e-14 7.95139e-16 -2.98178e-16 2.93279e-13 3.18055e-15 -8.94531e-16 -0.0 0.0 0.0 -0.0 0.0 0.0 4.8953e-14 3.42632e-16 0.0 1.02787e-12 7.17488e-15 1.98785e-16 1.76667e-11 -5.0374e-12 -2.29e-13 2.02173e-10 6.61627e-12 -3.81667e-13 4.76894e-10 3.43016e-12 -1.34856e-12 8.23569e-10 5.92855e-12 -2.35123e-12 4.76901e-10 3.43023e-12 -1.34537e-12 7.73091 5.47488 0.417314 4.76894e-10 3.42973e-12 -1.34537e-12 2.90554 0.965183 0.102902 4.76898e-10 3.43023e-12 -1.34935e-12 10.2786 0.731801 0.0259123 4.76892e-10 3.43142e-12 -1.34219e-12 2.22167 -0.733487 -0.20892 4.87529e-14 3.45932e-16 -3.97569e-16 1.02419e-12 6.8208e-15 -1.39149e-15 1.76667e-11 5.52562e-12 -2.25819e-13 2.02143e-10 -3.97207e-12 -3.56222e-13 4.76833e-10 3.37973e-12 -1.34219e-12 8.23476e-10 5.84268e-12 -2.32896e-12 4.76828e-10 3.37934e-12 -1.33901e-12 -7.73091 5.47488 -0.417314 4.76833e-10 3.37944e-12 -1.34537e-12 -2.90554 0.965183 -0.102902 4.7683e-10 3.37944e-12 -1.34378e-12 -10.2786 0.731801 -0.0259123 4.76838e-10 3.38252e-12 -1.34856e-12 -2.22167 -0.733487 0.20892 -2.03217e-16 0.0 -3.88251e-19 -1.50091 -1.93106 0.00776972 -0.00872123 -2.07863 -0.0717116 -0.4726 3.99921 0.134502 2.03217e-16 0.0 3.88251e-19 -2.45052 -8.43845 0.261216 -0.00685631 9.70807 -0.175592 0.523305 -1.28001 -0.0328432
282.817 82.3427 95.007 -175.393 -17.7985 177.699 -1.14272 0.179149 -0.058437 -0.956539 1.67063 -0.148278 1.47621 3.71452 1.03922 -1.92776 -5.4339 1.59044 -0.0 0.0 0.0 -0.0 0.0 0.0 8.3515e-14 -4.39371e-14 -5.5358e-14 21.6695 6.39723 1.14211 -4.43092 -2.05708 6.87258 -7.32111e-06 0.00767225 0.00107829 4.35454e-10 -5.47364e-11 -3.25378e-10 7.53477e-10 -9.55058e-11 -5.63921e-10 4.35459e-10 -5.47324e-11 -3.25378e-10 7.73091 5.47488 0.417314 4.35452e-10 -5.47336e-11 -3.25379e-10 2.90554 0.965183 0.102902 4.35458e-10 -5.47326e-11 -3.2538e-10 10.2786 0.731801 0.0259123 4.35448e-10 -5.47285e-11 -3.25378e-10 2.22167 -0.733487 -0.20892 8.33383e-14 -4.39348e-14 -5.56877e-14 -21.8796 7.2078 -1.308 4.30157 -1.97099 -6.70073 -0.107268 -7.27604 0.993049 2.91387e-11 3.98026e-11 -4.16797e-10 5.99554e-11 7.99014e-11 -7.26942e-10 2.91316e-11 3.97989e-11 -4.16792e-10 -7.73091 5.47488 -0.417314 2.91383e-11 3.98017e-11 -4.168e-10 -2.90554 0.965183 -0.102902 2.9136e-11 3.98005e-11 -4.16799e-10 -10.2786 0.731801 -0.0259123 2.91433e-11 3.98034e-11 -4.16804e-10 -2.22167 -0.733487 0.20892 -2.03217e-16 0.0 -3.88251e-19 -0.0177206 -4.14732 -0.356504 0.0377184 7.1849 0.131771 -1.24311 -3.53867 -4.81887 2.03217e-16 0.0 3.88251e-19 -0.263098 -9.33937 2.81152 -0.00265246 16.2379 -0.261134 0.901731 -6.40884 2.46265
282.823 82.3403 95.0124 -175.393 -17.7686 177.739 0.395557 0.369951 -0.0454462 -1.20757 3.42368 -0.174028 2.8884 7.6364 2.15269 -3.63278 -11.1614 3.32034 -0.0 0.0 0.0 -0.0 0.0 0.0 1.25977e-13 -9.46206e-14 -1.17423e-13 44.2909 13.1597 2.39814 -8.58696 -4.13622 14.1729 -2.03278e-05 0.00880717 0.00123785 3.73213e-10 -8.30424e-11 -7.09866e-10 6.4759e-10 -1.45447e-10 -1.23014e-09 3.73217e-10 -8.30343e-11 -7.09867e-10 7.73091 5.47488 0.417314 3.73209e-10 -8.30361e-11 -7.0987e-10 2.90554 0.965183 0.102902 3.73219e-10 -8.30346e-11 -7.09867e-10 10.2786 0.731801 0.0259123 3.73202e-10 -8.30273e-11 -7.09871e-10 2.22167 -0.733487 -0.20892 1.25823e-13 -9.46194e-14 -1.17681e-13 -44.64 14.8186 -2.76148 8.35535 -3.96762 -13.8159 0.0623161 -14.9634 2.09793 -4.89586e-10 6.27721e-11 -8.65657e-10 -8.25339e-10 1.32047e-10 -1.51058e-09 -4.89596e-10 6.27645e-11 -8.65648e-10 -7.73091 5.47488 -0.417314 -4.89587e-10 6.27704e-11 -8.65658e-10 -2.90554 0.965183 -0.102902 -4.89589e-10 6.27678e-11 -8.65659e-10 -10.2786 0.731801 -0.0259123 -4.89582e-10 6.27706e-11 -8.65663e-10 -2.22167 -0.733487 0.20892 -2.03217e-16 0.0 -3.88251e-19 1.51686 -6.4892 -0.745922 0.0127253 16.9792 0.360423 -3.49097 -11.3535 -10.2393 2.03217e-16 0.0 3.88251e-19 2.13532 -10.2657 5.52046 0.0250942 23.1401 -0.361925 1.7971 -11.8005 5.17928
282.822 82.3392 94.996 -175.352 -17.7439 177.752 1.77088 0.536716 -0.0347623 -1.43197 4.9873 -0.197331 4.01802 11.1288 3.17078 -4.84742 -16.2504 4.94803 -0.0 0.0 0.0 -0.0 0.0 0.0 1.52639e-13 -1.32497e-13 -1.66074e-13 64.2058 19.1603 3.60492 -11.8414 -5.81682 20.7159 -2.28301e-05 0.0230167 0.00323488 3.52573e-10 -1.71069e-10 -9.73438e-10 6.13293e-10 -2.98374e-10 -1.68706e-09 3.52576e-10 -1.71058e-10 -9.73442e-10 7.73091 5.47488 0.417314 3.52568e-10 -1.7106e-10 -9.73446e-10 2.90554 0.965183 0.102902 3.5258e-10 -1.71058e-10 -9.7344e-10 10.2786 0.731801 0.0259123 3.52559e-10 -1.71048e-10 -9.73448e-10 2.22167 -0.733487 -0.20892 1.52509e-13 -1.32496e-13 -1.66268e-13 -64.589 21.5766 -4.18684 11.5477 -5.59016 -20.1904 0.484012 -21.8008 3.18301 -8.66249e-10 1.12648e-10 -1.24771e-09 -1.46709e-09 2.28019e-10 -2.17617e-09 -8.66261e-10 1.12638e-10 -1.2477e-09 -7.73091 5.47488 -0.417314 -8.66251e-10 1.12646e-10 -1.24771e-09 -2.90554 0.965183 -0.102902 -8.66252e-10 1.12643e-10 -1.24771e-09 -10.2786 0.731801 -0.0259123 -8.66245e-10 1.12645e-10 -1.24771e-09 -2.22167 -0.733487 0.20892 -2.03217e-16 0.0 -3.88251e-19 2.86326 -8.57853 -1.09449 -0.083032 25.7108 0.594387 -6.80337 -18.0204 -15.474 2.03217e-16 0.0 3.88251e-19 4.35538 -11.0693 7.95483 0.0737255 29.2971 -0.465542 3.04477 -16.5409 7.72911
